<?xml version="1.0" standalone="no"?>
<!DOCTYPE svg PUBLIC "-//W3C//DTD SVG 20010904//EN"
 "http://www.w3.org/TR/2001/REC-SVG-20010904/DTD/svg10.dtd">
<svg version="1.0" xmlns="http://www.w3.org/2000/svg"
 width="278.000000pt" height="278.000000pt" viewBox="0 0 278.000000 278.000000"
 preserveAspectRatio="xMidYMid meet">
<metadata>
Created by potrace 1.14, written by Peter Selinger 2001-2017
</metadata>
<g transform="translate(0.000000,278.000000) scale(0.100000,-0.100000)"
fill="#000000" stroke="none">
<path d="M218 2103 l-3 -547 -84 159 c-47 88 -93 174 -103 190 -18 29 -19 22
-15 -385 l3 -415 27 -88 c31 -99 81 -205 138 -289 41 -59 153 -177 196 -205
25 -17 26 -16 65 25 l39 43 67 -59 c37 -32 88 -73 114 -90 62 -43 530 -304
544 -305 15 0 474 255 555 310 141 94 288 273 354 432 79 189 85 253 85 889
l0 523 23 -7 c12 -4 139 -42 282 -84 l260 -77 3 103 c1 57 1 150 0 207 l-3
103 -250 -37 c-137 -21 -265 -40 -282 -42 l-33 -6 0 99 0 100 -27 -5 c-16 -3
-239 -37 -497 -75 l-468 -70 -472 70 c-259 39 -481 73 -493 75 l-23 5 -2 -547z
m456 356 c-5 -9 -331 -229 -338 -229 -3 0 -6 64 -6 143 l0 143 174 -25 c96
-14 173 -28 170 -32z m1414 19 l-3 -43 -75 -11 c-41 -6 -97 -15 -125 -19 l-50
-7 125 -37 125 -37 3 -67 c2 -56 0 -67 -13 -67 -15 0 -689 193 -725 207 -12 5
-11 7 5 11 20 5 699 109 723 111 9 1 12 -11 10 -41z m-19 -1348 c-25 -164
-106 -330 -222 -455 -91 -99 -153 -142 -418 -289 l-221 -123 -242 134 c-241
134 -311 181 -375 246 l-33 35 40 44 40 43 -154 288 -154 288 2 255 3 255 209
-393 c116 -216 245 -459 288 -540 l79 -147 99 108 c102 111 118 121 191 121
46 0 133 38 166 72 44 45 53 76 53 173 l0 84 328 360 327 359 3 -421 c2 -286
-1 -446 -9 -497z"/>
</g>
</svg>
