<svg id="ed57d88e-7881-409d-a4b0-42815f1fa267" data-name="Layer 1" xmlns="http://www.w3.org/2000/svg" width="733" height="200" viewBox="0 0 733 200">
  <defs>
    <style>
      .aec87c8f-4f5a-4b79-aab4-e59e622805a7 {
        fill: #fff;
      }

      .edd1a39e-506a-49f4-9350-f82c0932db09 {
        fill: none;
      }

      .f44810af-2e5a-4a10-8908-7889d1e44a08 {
        fill: #fbae17;
      }

      .b2103c66-c35c-4318-8ac7-56721b9d564a {
        fill: #ffce01;
      }
    </style>
  </defs>
  <g>
    <g>
      <rect class="aec87c8f-4f5a-4b79-aab4-e59e622805a7" x="609.16897" width="19.0925" height="91.67042"/>
      <path class="aec87c8f-4f5a-4b79-aab4-e59e622805a7" d="M438.50729,33.22828a34.70114,34.70114,0,0,0-11.52753-7.38407,37.99233,37.99233,0,0,0-14.40943-2.70148,36.64681,36.64681,0,0,0-14.58956,2.79153,34.65229,34.65229,0,0,0-11.52753,7.56416,33.91162,33.91162,0,0,0-7.655,11.07609A34.311,34.311,0,0,0,376.0064,58.172v.27015a32.81489,32.81489,0,0,0,2.79183,13.59748,35.087,35.087,0,0,0,7.56494,11.07609,34.70106,34.70106,0,0,0,11.52754,7.38406,37.99233,37.99233,0,0,0,14.40943,2.70149,36.64676,36.64676,0,0,0,14.58955-2.79154,34.65223,34.65223,0,0,0,11.52754-7.56416,33.91138,33.91138,0,0,0,7.655-11.07609A34.31094,34.31094,0,0,0,448.86407,58.172v-.27015a32.81474,32.81474,0,0,0-2.79184-13.59748A33.66483,33.66483,0,0,0,438.50729,33.22828Zm-8.46553,25.12381A20.69158,20.69158,0,0,1,428.871,65.466a18.90649,18.90649,0,0,1-3.42223,5.85322,16.22351,16.22351,0,0,1-5.4936,3.96218,17.44014,17.44014,0,0,1-7.38484,1.44079,16.91053,16.91053,0,0,1-7.20472-1.53084,17.78965,17.78965,0,0,1-5.58366-4.05223,16.7254,16.7254,0,0,1-3.60236-5.94327,20.7402,20.7402,0,0,1-1.26082-7.11391V57.8118a20.69148,20.69148,0,0,1,1.17076-7.11391,18.90629,18.90629,0,0,1,3.42223-5.85322,16.22324,16.22324,0,0,1,5.4936-3.96218,18.64261,18.64261,0,0,1,14.58955.09005,18.167,18.167,0,0,1,5.67371,4.05223A16.72519,16.72519,0,0,1,428.871,50.968a20.74,20.74,0,0,1,1.26082,7.11391l-.09.27015Z"/>
      <path class="aec87c8f-4f5a-4b79-aab4-e59e622805a7" d="M518.20945,33.22828a34.70077,34.70077,0,0,0-11.52754-7.38407,37.99244,37.99244,0,0,0-14.40943-2.70148,36.64666,36.64666,0,0,0-14.58955,2.79153,35.75711,35.75711,0,0,0-3.2421,1.53085V0H455.34832V91.67042h19.09251V89.059a33.56408,33.56408,0,0,0,3.15206,1.44079,37.99244,37.99244,0,0,0,14.40943,2.70149,36.64671,36.64671,0,0,0,14.58956-2.79154,34.652,34.652,0,0,0,11.52753-7.56416,33.91186,33.91186,0,0,0,7.655-11.07609,34.31091,34.31091,0,0,0,2.7918-13.59748v-.27015a32.81535,32.81535,0,0,0-2.7918-13.59748A35.087,35.087,0,0,0,518.20945,33.22828Zm-8.46557,25.12381a20.69229,20.69229,0,0,1-1.17075,7.11392,18.90708,18.90708,0,0,1-3.42223,5.85322,16.22368,16.22368,0,0,1-5.49357,3.96218,17.44019,17.44019,0,0,1-7.38485,1.44079,16.91062,16.91062,0,0,1-7.20471-1.53084,17.789,17.789,0,0,1-5.58367-4.05223,16.72566,16.72566,0,0,1-3.60235-5.94327A20.73926,20.73926,0,0,1,474.6209,58.082V57.8118a20.6922,20.6922,0,0,1,1.17076-7.11391,18.90706,18.90706,0,0,1,3.42222-5.85322,16.22355,16.22355,0,0,1,5.49358-3.96218,18.64261,18.64261,0,0,1,14.58955.09005,18.16668,18.16668,0,0,1,5.67371,4.05223,16.72562,16.72562,0,0,1,3.60235,5.94326,20.73935,20.73935,0,0,1,1.26085,7.11391l-.09.27015Z"/>
      <path class="aec87c8f-4f5a-4b79-aab4-e59e622805a7" d="M567.56173,93.11121h1.17075a32.11071,32.11071,0,0,0,6.5743-.9005,14.70612,14.70612,0,0,0,5.49357-2.52138v2.07114h19.0925V24.58352H580.8004v38.3611a13.239,13.239,0,0,1-26.47734,0V24.49347H535.23055V57.9919h0v2.79154C535.6809,82.93561,549.73007,93.11121,567.56173,93.11121Z"/>
      <rect class="aec87c8f-4f5a-4b79-aab4-e59e622805a7" x="347.00741" y="106.70869" width="19.0925" height="91.67042"/>
      <path class="aec87c8f-4f5a-4b79-aab4-e59e622805a7" d="M331.42722,139.937a34.70091,34.70091,0,0,0-11.52753-7.38406,37.99233,37.99233,0,0,0-14.40943-2.70149A36.64681,36.64681,0,0,0,290.9007,132.643a35.76524,35.76524,0,0,0-3.24212,1.53084V106.79873H268.56607v91.67042h19.09251v-2.61143a33.565,33.565,0,0,0,3.15206,1.44079A37.99233,37.99233,0,0,0,305.22007,200a36.64681,36.64681,0,0,0,14.58956-2.79154,34.65229,34.65229,0,0,0,11.52753-7.56416,33.91141,33.91141,0,0,0,7.655-11.07609,34.3109,34.3109,0,0,0,2.79183-13.59748v-.27015a32.815,32.815,0,0,0-2.79183-13.59749A34.49018,34.49018,0,0,0,331.42722,139.937Zm-8.55559,25.21386a20.69152,20.69152,0,0,1-1.17076,7.11391,18.90649,18.90649,0,0,1-3.42223,5.85322,16.22335,16.22335,0,0,1-5.4936,3.96217,17.44,17.44,0,0,1-7.38484,1.4408,16.91053,16.91053,0,0,1-7.20472-1.53084,17.78992,17.78992,0,0,1-5.58366-4.05223,16.72531,16.72531,0,0,1-3.60236-5.94327,20.74028,20.74028,0,0,1-1.26082-7.11391v-.27015a20.69152,20.69152,0,0,1,1.17076-7.11391,18.90641,18.90641,0,0,1,3.42223-5.85322,16.22348,16.22348,0,0,1,5.4936-3.96217,18.64267,18.64267,0,0,1,14.58955.09,18.16751,18.16751,0,0,1,5.67371,4.05223,16.72532,16.72532,0,0,1,3.60235,5.94327,20.74009,20.74009,0,0,1,1.26082,7.11391l-.09.27015Z"/>
      <path class="aec87c8f-4f5a-4b79-aab4-e59e622805a7" d="M492.63269,133.8136v35.8397a13.239,13.239,0,0,1-26.47735,0v-38.271H447.06283v33.40838h0v2.79154c.4503,22.15219,14.4995,32.32777,32.33118,32.32777h1.17076a32.1106,32.1106,0,0,0,6.57429-.90049,14.70629,14.70629,0,0,0,5.49357-2.52139v2.07114h19.09251v-67.267H492.63263l.00006,2.52139Z"/>
      <path class="aec87c8f-4f5a-4b79-aab4-e59e622805a7" d="M723.00348,94.64205a9.9955,9.9955,0,1,0-9.99652-9.9955A10.03124,10.03124,0,0,0,723.00348,94.64205Z"/>
      <path class="aec87c8f-4f5a-4b79-aab4-e59e622805a7" d="M536.22123,179.01846a9.9955,9.9955,0,1,0,9.99652,9.9955A10.03123,10.03123,0,0,0,536.22123,179.01846Z"/>
      <path class="aec87c8f-4f5a-4b79-aab4-e59e622805a7" d="M703.82088,52.85907a34.70145,34.70145,0,0,0-9.45618-19.63079,32.8689,32.8689,0,0,0-10.89711-7.38407,34.26247,34.26247,0,0,0-13.59888-2.70148,33.36534,33.36534,0,0,0-13.779,2.79153,32.02939,32.02939,0,0,0-10.8971,7.56416,34.123,34.123,0,0,0-7.20472,11.07609A35.84411,35.84411,0,0,0,635.37615,58.172v.27015a35.84407,35.84407,0,0,0,2.61173,13.59748,34.12293,34.12293,0,0,0,7.20472,11.07609,32.86873,32.86873,0,0,0,10.8971,7.38406,34.16335,34.16335,0,0,0,11.7977,2.61144c.63043,0,1.26085.09005,1.89122.09005h25.48667V77.17244H670.67921A17.859,17.859,0,0,1,654.10834,64.7456h49.71254a55.82475,55.82475,0,0,0,.54034-5.58306v-1.2607C704.0911,56.1909,704.001,54.48,703.82088,52.85907Zm-40.2563-12.24674a17.09962,17.09962,0,0,1,7.11468-1.53084c7.745,0,14.31939,5.22287,16.841,12.51688H653.83823a19.72362,19.72362,0,0,1,1.531-3.42188A18.44926,18.44926,0,0,1,663.56458,40.61233Z"/>
      <path class="aec87c8f-4f5a-4b79-aab4-e59e622805a7" d="M441.65935,159.56776a34.70137,34.70137,0,0,0-9.45619-19.6308A32.86794,32.86794,0,0,0,421.306,132.5529a34.26251,34.26251,0,0,0-13.59891-2.70149,33.36517,33.36517,0,0,0-13.779,2.79154,32.02984,32.02984,0,0,0-10.89714,7.56416,34.1229,34.1229,0,0,0-7.20471,11.07609,35.84446,35.84446,0,0,0-2.61171,13.59749v.27015a35.84452,35.84452,0,0,0,2.61171,13.59748,34.12279,34.12279,0,0,0,7.20471,11.07609,32.86808,32.86808,0,0,0,10.89714,7.38406,34.163,34.163,0,0,0,11.79772,2.61143c.63043,0,1.26082.09006,1.89125.09006h25.48666V183.88114h-24.7662a17.8589,17.8589,0,0,1-16.57084-12.42684h49.71254a55.83062,55.83062,0,0,0,.54036-5.58306v-1.26071C441.92952,162.89958,441.83948,161.18865,441.65935,159.56776ZM401.403,147.321a17.09939,17.09939,0,0,1,7.11465-1.53084c7.74507,0,14.31936,5.22287,16.841,12.51688h-33.682a23.31868,23.31868,0,0,1,1.531-3.42189A18.49039,18.49039,0,0,1,401.403,147.321Z"/>
      <path class="aec87c8f-4f5a-4b79-aab4-e59e622805a7" d="M297.12777,2.34644a45.39077,45.39077,0,0,0-30.543,13.32217,44.96816,44.96816,0,0,0-9.6363,14.40794,44.37292,44.37292,0,0,0-3.42223,17.6497v.27016a47.62613,47.62613,0,0,0,3.42226,18.09994,43.1524,43.1524,0,0,0,9.45618,14.31788,43.896,43.896,0,0,0,14.58954,9.45519,50.39387,50.39387,0,0,0,18.82232,3.42191,53.52645,53.52645,0,0,0,21.434-4.05225,65.75506,65.75506,0,0,0,16.12054-9.8154V41.06259h-38.185V57.72173h19.45274V70.32866c-4.95323,3.512-10.98718,5.31293-18.19189,5.31293a27.39661,27.39661,0,0,1-10.717-2.07113,23.86371,23.86371,0,0,1-8.37545-5.85322,25.15224,25.15224,0,0,1-5.49361-8.9149,31.95025,31.95025,0,0,1-1.98132-11.16614V47.366a27.86941,27.86941,0,0,1,1.98132-10.62582,25.11335,25.11335,0,0,1,5.40354-8.64478,29.01467,29.01467,0,0,1,8.01524-5.94327,22.536,22.536,0,0,1,8.1053-2.16118h49.98272V91.49032h19.09249V2.34644Z"/>
    </g>
    <g>
      <path class="edd1a39e-506a-49f4-9350-f82c0932db09" d="M179.17344,20.82737H20.8274V179.17263l86.05894.00341a79.19372,79.19372,0,0,0,72.2871-72.23071V64.7962"/>
      <path class="f44810af-2e5a-4a10-8908-7889d1e44a08" d="M38.37626,111.80413v49.81955l66.98286.00341a61.64019,61.64019,0,0,0,56.26458-56.221l.00692-62.3485Z"/>
      <polygon class="b2103c66-c35c-4318-8ac7-56721b9d564a" points="38.376 34.965 38.376 117.149 185.725 34.965 38.376 34.965"/>
      <path class="aec87c8f-4f5a-4b79-aab4-e59e622805a7" d="M118.26722,54.30725c-9.61759,0-17.58826-4.51852-19.03939-10.42652h38.0779C135.85373,49.78873,127.88394,54.30725,118.26722,54.30725Z"/>
      <path class="aec87c8f-4f5a-4b79-aab4-e59e622805a7" d="M0,0V200H100a99.19687,99.19687,0,0,0,59.34914-19.5139,100.369,100.369,0,0,0,21.137-21.13534A99.1996,99.1996,0,0,0,200,100V53.1802l-20.82658,11.616v42.14913a79.19372,79.19372,0,0,1-72.2871,72.23071l-86.05894-.00341V20.82737H200V0Z"/>
    </g>
  </g>
</svg>
