<svg id="eabf96de-c84f-40f6-a32e-5f6b7880422f" data-name="Layer 1" xmlns="http://www.w3.org/2000/svg" width="733" height="200" viewBox="0 0 733 200">
  <defs>
    <style>
      .e9e69383-db7c-4da5-ae09-a4c09c0bdc20 {
        fill: #fff;
      }

      .e03433c3-df28-41c9-9014-d8beb0331e37 {
        fill: #ffce01;
      }

      .f8a65dec-1dee-4f6f-ad26-744f84a1a6a8 {
        fill: #fbb216;
      }

      .f74b8507-f019-4822-bbe2-62ccf6d47825 {
        fill: #1a1a1a;
      }

      .a6ddc597-3954-4a67-a79a-3c3e811184d2 {
        fill: #969ca0;
      }
    </style>
  </defs>
  <g>
    <g>
      <path class="e9e69383-db7c-4da5-ae09-a4c09c0bdc20" d="M185.61872,45.30246h0a47.26114,47.26114,0,0,0-40.69964-23.40819h0a48.94293,48.94293,0,0,0-34.81819,14.46838L99.39667,47.0669,87.869,36.00976A50.58142,50.58142,0,0,0,52.81557,21.89427h0a47.26356,47.26356,0,0,0-39.52335,21.4085A46.92841,46.92841,0,0,1,39.053,35.65688h0A50.58146,50.58146,0,0,1,74.10648,49.77237l7.41062,7.05775a5.89388,5.89388,0,0,0,8.234-.11763l6.5872-6.58723a49.14627,49.14627,0,0,1,34.81819-14.46837h0a47.11709,47.11709,0,0,1,40.69964,23.40819h0a46.59576,46.59576,0,0,1,6.352,23.64344h0A51.35132,51.35132,0,0,1,167.504,113.99787l8.35164-7.76352a50.89739,50.89739,0,0,0,16.1152-37.28843h0A46.28458,46.28458,0,0,0,185.61872,45.30246Z"/>
      <path class="e03433c3-df28-41c9-9014-d8beb0331e37" d="M191.97072,68.94591h0a47.46835,47.46835,0,0,0-6.352-23.64345h0a47.26114,47.26114,0,0,0-40.69964-23.40819h0a48.94293,48.94293,0,0,0-34.81819,14.46838L99.39667,47.0669,87.869,36.00976A50.58142,50.58142,0,0,0,52.81557,21.89427h0A47.30866,47.30866,0,0,0,11.99826,45.30246h0a46.59583,46.59583,0,0,0-6.352,23.64345h0a51.08709,51.08709,0,0,0,16.11521,37.1708l77.16466,72.3419,77.04707-72.22427A51.23677,51.23677,0,0,0,191.97072,68.94591Z"/>
      <path class="e9e69383-db7c-4da5-ae09-a4c09c0bdc20" d="M185.61872,45.30246h0a47.26114,47.26114,0,0,0-40.69964-23.40819h0a48.94293,48.94293,0,0,0-34.81819,14.46838L99.39667,47.0669,87.869,36.00976A50.58142,50.58142,0,0,0,52.81557,21.89427h0a47.26356,47.26356,0,0,0-39.52335,21.4085A46.92841,46.92841,0,0,1,39.053,35.65688h0A50.58146,50.58146,0,0,1,74.10648,49.77237l7.41062,7.05775a5.89388,5.89388,0,0,0,8.234-.11763l6.5872-6.58723a49.14627,49.14627,0,0,1,34.81819-14.46837h0a47.11709,47.11709,0,0,1,40.69964,23.40819h0a46.59576,46.59576,0,0,1,6.352,23.64344h0A51.35132,51.35132,0,0,1,167.504,113.99787l8.35164-7.76352a50.89739,50.89739,0,0,0,16.1152-37.28843h0A46.28458,46.28458,0,0,0,185.61872,45.30246Z"/>
      <path class="f8a65dec-1dee-4f6f-ad26-744f84a1a6a8" d="M119.39355,157.87352,42.22888,85.53162a51.08711,51.08711,0,0,1-16.1152-37.1708h0a46.73733,46.73733,0,0,1,5.17571-21.4085A46.68839,46.68839,0,0,0,11.99818,45.30246h0a46.59582,46.59582,0,0,0-6.352,23.64345h0a51.08709,51.08709,0,0,0,16.11521,37.1708l77.16466,72.3419Z"/>
      <path class="f74b8507-f019-4822-bbe2-62ccf6d47825" d="M98.80845,183.86956a5.34077,5.34077,0,0,1-3.76414-1.52918L17.87964,109.99847A56.795,56.795,0,0,1,0,68.82829,52.28059,52.28059,0,0,1,7.17535,42.36174,52.95036,52.95036,0,0,1,52.69783,16.13045,55.9935,55.9935,0,0,1,91.633,31.77512l7.6459,7.293,6.94014-6.94012a54.36255,54.36255,0,0,1,38.7-15.99756,52.64761,52.64761,0,0,1,52.58015,52.58021,56.79815,56.79815,0,0,1-17.87964,41.28782l-77.04706,72.22427A5.01132,5.01132,0,0,1,98.80845,183.86956ZM52.69783,27.30521A41.63887,41.63887,0,0,0,11.05716,68.9459a46.03494,46.03494,0,0,0,14.35077,33.17141l73.40059,68.813,73.28292-68.6954a45.64178,45.64178,0,0,0,14.35077-33.289,42.33406,42.33406,0,0,0-5.64618-20.938A41.5863,41.5863,0,0,0,144.80155,27.3052a43.61341,43.61341,0,0,0-30.93644,12.82157L103.16089,50.831a5.50657,5.50657,0,0,1-7.6459.11763L83.98736,39.89151A44.92865,44.92865,0,0,0,52.69783,27.30521Z"/>
    </g>
    <g>
      <g>
        <path class="a6ddc597-3954-4a67-a79a-3c3e811184d2" d="M296.94877,88.17193l-11.03425,43.42254H271.62557L253.52623,68.40554H268.609l11.11363,45.72465,12.06623-45.72465h10.558l11.98684,45.72465,11.03425-45.72465h15.16217l-18.02,63.2683H308.22116Z"/>
        <path class="a6ddc597-3954-4a67-a79a-3c3e811184d2" d="M346.722,68.40554h13.49511v63.2683H346.722Z"/>
        <path class="a6ddc597-3954-4a67-a79a-3c3e811184d2" d="M387.3661,80.23362H368.86984V68.40554h50.48763V80.23362H400.94059v51.44023H387.36608l0-51.44023Z"/>
        <path class="a6ddc597-3954-4a67-a79a-3c3e811184d2" d="M471.274,105.08052H441.426v26.59333H427.93083V68.40554H441.426v24.8469h29.848V68.40554H484.8485v63.2683H471.274Z"/>
      </g>
      <g>
        <path class="f74b8507-f019-4822-bbe2-62ccf6d47825" d="M505.64688,68.32616H519.142V119.687h26.75211v11.82807H505.64688Z"/>
        <path class="f74b8507-f019-4822-bbe2-62ccf6d47825" d="M582.64846,67.29418c19.13133,0,33.10275,13.65388,33.10275,32.70582s-13.97142,32.70582-33.10275,32.70582c-19.05194,0-33.02336-13.65388-33.02336-32.70582S563.59652,67.29418,582.64846,67.29418Zm0,11.90746c-11.66932,0-19.13133,8.8909-19.13133,20.79836,0,11.7487,7.462,20.79836,19.13133,20.79836S601.93854,111.82807,601.93854,100,594.31776,79.20164,582.64846,79.20164Z"/>
        <path class="f74b8507-f019-4822-bbe2-62ccf6d47825" d="M616.62441,68.32616h15.40031L649.56838,116.988l17.4643-48.66183H682.433l-24.37061,63.26831H641.15382Z"/>
        <path class="f74b8507-f019-4822-bbe2-62ccf6d47825" d="M688.22793,68.32616H733V80.15424H701.723V93.49059H732.3649v11.82808H701.723v14.289H733V131.4357H688.22793Z"/>
      </g>
    </g>
  </g>
</svg>
