<svg id="a9abb135-d7ec-4ff4-9715-04a9c45b89d0" data-name="Layer 1" xmlns="http://www.w3.org/2000/svg" width="733.00004" height="200" viewBox="0 0 733.00004 200">
  <defs>
    <style>
      .aa14e93b-513b-465b-a401-762952767407 {
        fill: #fff;
      }

      .f913849f-9dfe-4bfc-adde-483c57110757 {
        fill: #ffce01;
      }

      .e4397c51-50bd-4ddf-b780-8929aa8365ee {
        fill: #fbb216;
      }

      .bd1c1a46-c163-4211-86fd-053d29a42322 {
        fill: #969ca0;
      }
    </style>
  </defs>
  <g>
    <g>
      <path class="aa14e93b-513b-465b-a401-762952767407" d="M185.61873,45.30246h0a47.26115,47.26115,0,0,0-40.69965-23.40819h0A48.94291,48.94291,0,0,0,110.1009,36.36265L99.39667,47.0669,87.869,36.00976A50.58143,50.58143,0,0,0,52.81557,21.89427h0a47.26356,47.26356,0,0,0-39.52335,21.4085A46.92843,46.92843,0,0,1,39.053,35.65688h0A50.58143,50.58143,0,0,1,74.10649,49.77237l7.41062,7.05775a5.89387,5.89387,0,0,0,8.234-.11763l6.58721-6.58723a49.14626,49.14626,0,0,1,34.81819-14.46838h0a47.11712,47.11712,0,0,1,40.69964,23.40819h0a46.59582,46.59582,0,0,1,6.352,23.64345h0A51.35132,51.35132,0,0,1,167.504,113.99787l8.35164-7.76352a50.89741,50.89741,0,0,0,16.1152-37.28843h0A46.28458,46.28458,0,0,0,185.61873,45.30246Z"/>
      <path class="f913849f-9dfe-4bfc-adde-483c57110757" d="M191.97073,68.94591h0a47.46835,47.46835,0,0,0-6.352-23.64345h0a47.26115,47.26115,0,0,0-40.69965-23.40819h0A48.94291,48.94291,0,0,0,110.1009,36.36265L99.39667,47.0669,87.869,36.00976A50.58143,50.58143,0,0,0,52.81557,21.89427h0A47.30866,47.30866,0,0,0,11.99826,45.30246h0a46.5958,46.5958,0,0,0-6.352,23.64345h0a51.08709,51.08709,0,0,0,16.11521,37.1708l77.16467,72.34191,77.04707-72.22428A51.23677,51.23677,0,0,0,191.97073,68.94591Z"/>
      <path class="aa14e93b-513b-465b-a401-762952767407" d="M185.61873,45.30246h0a47.26115,47.26115,0,0,0-40.69965-23.40819h0A48.94291,48.94291,0,0,0,110.1009,36.36265L99.39667,47.0669,87.869,36.00976A50.58143,50.58143,0,0,0,52.81557,21.89427h0a47.26356,47.26356,0,0,0-39.52335,21.4085A46.92843,46.92843,0,0,1,39.053,35.65688h0A50.58143,50.58143,0,0,1,74.10649,49.77237l7.41062,7.05775a5.89387,5.89387,0,0,0,8.234-.11763l6.58721-6.58723a49.14626,49.14626,0,0,1,34.81819-14.46838h0a47.11712,47.11712,0,0,1,40.69964,23.40819h0a46.59582,46.59582,0,0,1,6.352,23.64345h0A51.35132,51.35132,0,0,1,167.504,113.99787l8.35164-7.76352a50.89741,50.89741,0,0,0,16.1152-37.28843h0A46.28458,46.28458,0,0,0,185.61873,45.30246Z"/>
      <path class="e4397c51-50bd-4ddf-b780-8929aa8365ee" d="M119.39355,157.87352,42.22888,85.53162a51.08711,51.08711,0,0,1-16.1152-37.1708h0a46.73733,46.73733,0,0,1,5.17571-21.4085A46.68839,46.68839,0,0,0,11.99818,45.30246h0a46.59579,46.59579,0,0,0-6.352,23.64345h0a51.08709,51.08709,0,0,0,16.11521,37.1708l77.16467,72.34191Z"/>
      <path class="bd1c1a46-c163-4211-86fd-053d29a42322" d="M98.80846,183.86956a5.34079,5.34079,0,0,1-3.76415-1.52918L17.87964,109.99847A56.795,56.795,0,0,1,0,68.82828,52.28064,52.28064,0,0,1,7.17535,42.36173,52.95036,52.95036,0,0,1,52.69783,16.13044,55.99351,55.99351,0,0,1,91.633,31.77511l7.64589,7.293,6.94015-6.94012a54.36252,54.36252,0,0,1,38.7-15.99755,52.64761,52.64761,0,0,1,52.58016,52.58021,56.79815,56.79815,0,0,1-17.87964,41.28782l-77.04707,72.22427A5.01127,5.01127,0,0,1,98.80846,183.86956ZM52.69783,27.3052A41.63886,41.63886,0,0,0,11.05717,68.9459a46.035,46.035,0,0,0,14.35076,33.17141l73.4006,68.813,73.28292-68.6954a45.6418,45.6418,0,0,0,14.35077-33.289,42.33406,42.33406,0,0,0-5.64618-20.938,41.58631,41.58631,0,0,0-35.99448-20.70273,43.61342,43.61342,0,0,0-30.93645,12.82158L103.16089,50.831a5.50657,5.50657,0,0,1-7.64589.11762L83.98736,39.89151A44.92864,44.92864,0,0,0,52.69783,27.3052Z"/>
    </g>
    <g>
      <g>
        <path class="bd1c1a46-c163-4211-86fd-053d29a42322" d="M296.94879,88.17193l-11.03425,43.42254h-14.289L253.52624,68.40554H268.609l11.11363,45.72465,12.06623-45.72465h10.55794l11.98685,45.72465,11.03425-45.72465h15.16216l-18.02,63.2683H308.22118Z"/>
        <path class="bd1c1a46-c163-4211-86fd-053d29a42322" d="M346.722,68.40554h13.49511v63.2683H346.722Z"/>
        <path class="bd1c1a46-c163-4211-86fd-053d29a42322" d="M387.36612,80.23362H368.86986V68.40554h50.48763V80.23362H400.94062v51.44024H387.36611l0-51.44024Z"/>
        <path class="bd1c1a46-c163-4211-86fd-053d29a42322" d="M471.274,105.08052H441.426v26.59334H427.93085V68.40554H441.426v24.8469H471.274V68.40554h13.57451v63.2683H471.274Z"/>
      </g>
      <g>
        <path class="aa14e93b-513b-465b-a401-762952767407" d="M505.64691,68.32616H519.142V119.687h26.75211v11.82807H505.64691Z"/>
        <path class="aa14e93b-513b-465b-a401-762952767407" d="M582.64849,67.29417c19.13133,0,33.10276,13.65389,33.10276,32.70583s-13.97143,32.70583-33.10276,32.70583c-19.05194,0-33.02336-13.65389-33.02336-32.70583S563.59655,67.29417,582.64849,67.29417Zm0,11.90747c-11.66932,0-19.13132,8.8909-19.13132,20.79836,0,11.7487,7.462,20.79836,19.13132,20.79836S601.93857,111.82807,601.93857,100,594.31779,79.20164,582.64849,79.20164Z"/>
        <path class="aa14e93b-513b-465b-a401-762952767407" d="M616.62444,68.32616h15.40031L649.56842,116.988l17.4643-48.66183h15.40034l-24.37062,63.26831H641.15386Z"/>
        <path class="aa14e93b-513b-465b-a401-762952767407" d="M688.228,68.32616H733V80.15424h-31.277V93.49059h30.64185v11.82808H701.72309v14.289H733V131.4357H688.228Z"/>
      </g>
    </g>
  </g>
</svg>
